<svg width="145" height="26" viewBox="0 0 145 26" fill="none" xmlns="http://www.w3.org/2000/svg">
<path d="M23.7441 15.222C24.5934 15.222 25.2728 14.5443 25.2728 13.6973C25.2728 12.8502 24.5934 12.1726 23.7441 12.1726C23.4328 12.1726 23.1214 12.2855 22.8666 12.4549L20.7152 11.2126C20.7152 11.1843 20.7152 11.1279 20.7152 11.0996C20.7152 11.0714 20.7152 11.0149 20.7152 10.9867L22.8666 9.74432C23.1214 9.91374 23.4045 10.0267 23.7441 10.0267C24.5934 10.0267 25.2728 9.34903 25.2728 8.50197C25.2728 7.65491 24.5934 6.97727 23.7441 6.97727C23.4328 6.97727 23.1214 7.09021 22.8666 7.25962L20.7152 6.01727C20.7152 5.98903 20.7152 5.93256 20.7152 5.90433C20.7152 5.05727 20.0358 4.37962 19.1866 4.37962C18.3374 4.37962 17.658 5.05727 17.658 5.90433C17.658 6.75138 18.3374 7.42903 19.1866 7.42903C19.498 7.42903 19.8094 7.31609 20.0641 7.14668L22.2155 8.38903C22.2155 8.41727 22.2155 8.47374 22.2155 8.50197C22.2155 8.53021 22.2155 8.58668 22.2155 8.61491L20.0641 9.85727C19.8094 9.68785 19.5263 9.57491 19.1866 9.57491C18.8469 9.57491 18.5638 9.68785 18.3091 9.85727L16.1577 8.61491C16.1577 8.58668 16.1577 8.53021 16.1577 8.50197C16.1577 7.8808 15.7897 7.37256 15.2801 7.11844V4.6055C15.7897 4.35138 16.1577 3.84315 16.1577 3.22197C16.1577 2.37491 15.4783 1.69727 14.6291 1.69727C13.7798 1.69727 13.1005 2.37491 13.1005 3.22197C13.1005 3.84315 13.4685 4.35138 13.978 4.6055V7.09021C13.4685 7.34432 13.1005 7.85256 13.1005 8.47374C13.1005 9.3208 13.7798 9.99844 14.6291 9.99844C14.9405 9.99844 15.2518 9.8855 15.5066 9.71609L17.658 10.9584C17.658 10.9867 17.658 11.0431 17.658 11.0714C17.658 11.0996 17.658 11.1561 17.658 11.1843L15.5066 12.4267C15.2518 12.2573 14.9688 12.1443 14.6291 12.1443C14.2894 12.1443 14.0063 12.2573 13.7515 12.4267L11.6001 11.1843C11.6001 11.1561 11.6001 11.0996 11.6001 11.0714C11.6001 10.4502 11.2321 9.94197 10.7226 9.68785V7.20315C11.2321 6.94903 11.6001 6.44079 11.6001 5.81962C11.6001 4.97256 10.9208 4.29491 10.0715 4.29491C9.2223 4.29491 8.57122 5.0008 8.57122 5.84785C8.57122 6.46903 8.93922 6.97727 9.44876 7.23138V9.68785C9.36384 9.71609 9.30722 9.77256 9.2223 9.8008L7.07092 8.55844C7.07092 8.53021 7.07092 8.47374 7.07092 8.4455C7.07092 7.59844 6.39153 6.9208 5.5423 6.9208C4.69307 6.9208 4.04199 7.59844 4.04199 8.4455C4.04199 9.06668 4.40999 9.57491 4.91953 9.82903V12.3137C4.40999 12.5679 4.04199 13.0761 4.04199 13.6973C4.04199 14.5443 4.72138 15.222 5.57061 15.222C6.41984 15.222 7.09922 14.5443 7.09922 13.6973C7.09922 13.0761 6.73122 12.5679 6.22168 12.3137V9.82903C6.30661 9.8008 6.36322 9.74432 6.44815 9.71609L8.59953 10.9584C8.59953 10.9867 8.59953 11.0431 8.59953 11.0714C8.59953 11.6926 8.96753 12.2008 9.47707 12.4549V14.9396C8.96753 15.1937 8.59953 15.702 8.59953 16.3231C8.59953 16.3514 8.59953 16.4079 8.59953 16.4361L6.44815 17.6784C6.19338 17.509 5.9103 17.3961 5.57061 17.3961C4.72138 17.3961 4.04199 18.0737 4.04199 18.9208C4.04199 19.7679 4.72138 20.4455 5.57061 20.4455C6.41984 20.4455 7.09922 19.7679 7.09922 18.9208C7.09922 18.8926 7.09922 18.8361 7.09922 18.8079L9.25061 17.5655C9.50538 17.7349 9.78845 17.8479 10.1281 17.8479C10.9774 17.8479 11.6568 17.1702 11.6568 16.3231C11.6568 15.702 11.2888 15.1937 10.7792 14.9396V12.4549C10.8641 12.4267 10.9208 12.3702 11.0057 12.342L13.1571 13.5843C13.1571 13.6126 13.1571 13.669 13.1571 13.6973C13.1571 14.3184 13.5251 14.8267 14.0346 15.0808V17.5655C13.5251 17.8196 13.1571 18.3279 13.1571 18.949C13.1571 18.9773 13.1571 19.0337 13.1571 19.062L11.0057 20.3043C10.7509 20.1349 10.4678 20.022 10.1281 20.022C9.27892 20.022 8.59953 20.6996 8.59953 21.5467C8.59953 22.3937 9.27892 23.0714 10.1281 23.0714C10.9774 23.0714 11.6568 22.3937 11.6568 21.5467C11.6568 21.5184 11.6568 21.462 11.6568 21.4337L13.8081 20.1914C13.8648 20.2479 13.9497 20.2761 14.0346 20.3043V22.789C13.5251 23.0431 13.1571 23.5514 13.1571 24.1726C13.1571 25.0196 13.8365 25.6973 14.6857 25.6973C15.5349 25.6973 16.2143 25.0196 16.2143 24.1726C16.2143 24.1443 16.2143 24.0879 16.2143 24.0596L18.3657 22.8173C18.6205 22.9867 18.9035 23.0996 19.2432 23.0996C20.0925 23.0996 20.7718 22.422 20.7718 21.5749C20.7718 20.7279 20.0925 20.0502 19.2432 20.0502C18.394 20.0502 17.658 20.6996 17.658 21.5467C17.658 21.5749 17.658 21.6314 17.658 21.6596L15.5066 22.902C15.45 22.8455 15.3651 22.8173 15.2801 22.789V20.3043C15.7897 20.0502 16.1577 19.542 16.1577 18.9208C16.1577 18.8926 16.1577 18.8361 16.1577 18.8079L18.3091 17.5655C18.5638 17.7349 18.8469 17.8479 19.1866 17.8479C19.5263 17.8479 19.8094 17.7349 20.0641 17.5655L22.2155 18.8079C22.2155 18.8361 22.2155 18.8926 22.2155 18.9208C22.2155 19.7679 22.8949 20.4455 23.7441 20.4455C24.5934 20.4455 25.2728 19.7679 25.2728 18.9208C25.2728 18.0737 24.5934 17.3961 23.7441 17.3961C23.4328 17.3961 23.1214 17.509 22.8666 17.6784L20.7152 16.4361C20.7152 16.4079 20.7152 16.3514 20.7152 16.3231C20.7152 15.4761 20.0358 14.7984 19.1866 14.7984C18.3374 14.7984 17.658 15.4761 17.658 16.3231C17.658 16.3514 17.658 16.4079 17.658 16.4361L15.5066 17.6784C15.45 17.622 15.3651 17.5937 15.2801 17.5655V15.0526C15.7897 14.7984 16.1577 14.2902 16.1577 13.669C16.1577 13.6408 16.1577 13.5843 16.1577 13.5561L18.3091 12.3137C18.5638 12.4831 18.8469 12.5961 19.1866 12.5961C19.5263 12.5961 19.8094 12.4831 20.0641 12.3137L22.2155 13.5561C22.2155 13.5843 22.2155 13.6408 22.2155 13.669C22.2155 14.5161 22.8949 15.222 23.7441 15.222Z" fill="white"/>
<path d="M41.376 13.848H43.1255C43.1927 14.2671 43.4003 14.6012 43.7482 14.8503C44.1001 15.0994 44.5488 15.2239 45.0945 15.2239C45.5215 15.2239 45.8536 15.1449 46.0908 14.9867C46.332 14.8246 46.4526 14.6032 46.4526 14.3225C46.4526 13.8797 46.1086 13.597 45.4206 13.4744L44.0744 13.2075C43.2678 13.0454 42.6728 12.7647 42.2893 12.3654C41.9097 11.9661 41.72 11.4402 41.72 10.7879C41.72 9.99316 42.0086 9.35463 42.5858 8.87228C43.167 8.38597 43.9301 8.14281 44.875 8.14281C45.1715 8.14281 45.4621 8.16851 45.7468 8.21991C46.0315 8.26736 46.3241 8.35632 46.6245 8.48679C46.925 8.61331 47.1899 8.77541 47.4192 8.9731C47.6486 9.16683 47.8443 9.4258 48.0064 9.75C48.1724 10.0703 48.2752 10.436 48.3148 10.8472L46.5771 10.8472C46.4545 10.0208 45.9287 9.60767 44.9996 9.60767C44.5647 9.60767 44.2167 9.6986 43.9558 9.88047C43.6948 10.0584 43.5644 10.3075 43.5644 10.6277C43.5644 10.8926 43.6612 11.0982 43.855 11.2445C44.0487 11.3868 44.3452 11.5015 44.7445 11.5885L45.7646 11.7961C46.5988 11.97 47.2255 12.2369 47.6446 12.5967C48.0676 12.9565 48.2792 13.4665 48.2792 14.1268C48.2792 14.9175 47.9787 15.5541 47.3777 16.0364C46.7807 16.5148 45.988 16.754 44.9996 16.754C44.3353 16.754 43.7383 16.6413 43.2085 16.416C42.6827 16.1867 42.2577 15.8526 41.9335 15.4137C41.6092 14.9709 41.4234 14.449 41.376 13.848ZM49.281 16.582L52.8393 8.27329H54.488L58.0345 16.582H56.1782L55.5377 14.9926H51.7955L51.1491 16.582H49.281ZM52.436 13.3973H54.8913L53.6518 10.3727L52.436 13.3973ZM59.5404 16.582V8.32073H65.5777V9.92792H61.3018V11.9562H65.0321V13.5456H61.3018V16.582H59.5404ZM67.1192 16.582V8.32073H73.2396V9.91606L68.8806 9.91606V11.713L72.7414 11.713V13.3024L68.8806 13.3024V14.9926L73.2396 14.9926V16.582L67.1192 16.582ZM78.671 16.582V8.32073H79.9935L84.3703 13.4744V8.32073H86.1317V16.582H84.7677L80.4324 11.5648V16.582H78.671ZM88.2425 16.582V8.32073H94.3629V9.91606H90.0039V11.713H93.8647V13.3024H90.0039V14.9926H94.3629V16.582H88.2425ZM95.3825 9.92792V8.32073L102.659 8.32073V9.92792H99.9016V16.582H98.1402V9.92792L95.3825 9.92792ZM103.803 8.32073L105.654 8.32073L107.391 13.8836L109.295 8.32073H110.766L112.67 13.8836L114.407 8.32073H116.258L113.547 16.6295H111.833L110.025 11.3691L108.228 16.6295L106.502 16.6295L103.803 8.32073ZM117.781 14.619C117.402 13.9587 117.212 13.2372 117.212 12.4543C117.212 11.6715 117.402 10.95 117.781 10.2897C118.165 9.62941 118.687 9.1095 119.347 8.72994C120.007 8.34643 120.733 8.15468 121.524 8.15468C122.117 8.15468 122.68 8.26736 123.214 8.49272C123.751 8.71808 124.212 9.02252 124.596 9.40603C124.983 9.78954 125.289 10.2462 125.515 10.776C125.74 11.3058 125.853 11.8652 125.853 12.4543C125.853 13.0435 125.74 13.6029 125.515 14.1327C125.289 14.6625 124.983 15.1192 124.596 15.5027C124.212 15.8862 123.751 16.1906 123.214 16.416C122.68 16.6413 122.117 16.754 121.524 16.754C120.733 16.754 120.007 16.5642 119.347 16.1847C118.687 15.8012 118.165 15.2793 117.781 14.619ZM119.311 11.12C119.094 11.5272 118.985 11.972 118.985 12.4543C118.985 12.9367 119.094 13.3815 119.311 13.7887C119.529 14.192 119.833 14.5142 120.225 14.7554C120.616 14.9926 121.049 15.1112 121.524 15.1112C122.002 15.1112 122.437 14.9926 122.828 14.7554C123.22 14.5142 123.524 14.192 123.742 13.7887C123.959 13.3815 124.068 12.9367 124.068 12.4543C124.068 11.972 123.959 11.5292 123.742 11.1259C123.524 10.7187 123.22 10.3945 122.828 10.1533C122.437 9.9121 122.002 9.79152 121.524 9.79152C121.049 9.79152 120.616 9.9121 120.225 10.1533C119.833 10.3905 119.529 10.7127 119.311 11.12ZM127.774 16.582V8.32073L131.297 8.32073C132.261 8.32073 133.048 8.58168 133.657 9.10357C134.27 9.62546 134.576 10.3134 134.576 11.1674C134.576 11.7209 134.438 12.2132 134.161 12.6441C133.884 13.0751 133.501 13.4111 133.011 13.6523L135.11 16.582H133.011L131.202 14.02H129.535V16.582H127.774ZM129.535 12.401H131.237C131.692 12.401 132.072 12.2883 132.376 12.0629C132.684 11.8336 132.839 11.5351 132.839 11.1674C132.839 10.7918 132.686 10.4913 132.382 10.266C132.077 10.0406 131.696 9.92792 131.237 9.92792H129.535V12.401ZM136.515 16.582V8.32073H138.276V12.3654L141.87 8.32073H143.964L140.755 11.9562L144.29 16.582H142.102L139.563 13.2906L138.276 14.7495V16.582H136.515Z" fill="white"/>
</svg>
