<svg width="132" height="24" viewBox="0 0 132 24" fill="none" xmlns="http://www.w3.org/2000/svg">
<path d="M34.2612 13.2739H35.9897C36.0562 13.6879 36.2612 14.018 36.605 14.2641C36.9526 14.5102 37.396 14.6332 37.9351 14.6332C38.3569 14.6332 38.6851 14.5551 38.9194 14.3989C39.1577 14.2387 39.2769 14.02 39.2769 13.7426C39.2769 13.3051 38.937 13.0258 38.2573 12.9047L36.9272 12.6411C36.1304 12.4809 35.5425 12.2036 35.1636 11.809C34.7886 11.4145 34.6011 10.895 34.6011 10.2504C34.6011 9.46527 34.8862 8.83441 35.4565 8.35785C36.0308 7.87738 36.7847 7.63715 37.7183 7.63715C38.0112 7.63715 38.2983 7.66254 38.5796 7.71332C38.8608 7.76019 39.1499 7.84808 39.4468 7.97699C39.7437 8.10199 40.0054 8.26215 40.2319 8.45746C40.4585 8.64886 40.6519 8.90472 40.812 9.22504C40.9761 9.54144 41.0776 9.90277 41.1167 10.309H39.3999C39.2788 9.49261 38.7593 9.08441 37.8413 9.08441C37.4116 9.08441 37.0679 9.17426 36.8101 9.35394C36.5522 9.52972 36.4233 9.77582 36.4233 10.0922C36.4233 10.3539 36.519 10.5571 36.7104 10.7016C36.9019 10.8422 37.1948 10.9555 37.5894 11.0414L38.5972 11.2465C39.4214 11.4184 40.0405 11.6821 40.4546 12.0375C40.8726 12.393 41.0815 12.8969 41.0815 13.5493C41.0815 14.3305 40.7847 14.9594 40.1909 15.436C39.6011 15.9086 38.8179 16.145 37.8413 16.145C37.1851 16.145 36.5952 16.0336 36.0718 15.811C35.5522 15.5844 35.1323 15.2543 34.812 14.8207C34.4917 14.3832 34.3081 13.8676 34.2612 13.2739ZM41.5913 15.975L45.1069 7.76605H46.7358L50.2397 15.975H48.4058L47.7729 14.4047H44.0757L43.437 15.975H41.5913ZM44.7085 12.8286H47.1343L45.9097 9.84027L44.7085 12.8286ZM51.2476 15.975V7.81293H57.2124V9.40082H52.9878V11.4047H56.6733V12.975H52.9878V15.975H51.2476ZM58.2554 15.975V7.81293H64.3022V9.3891H59.9956V11.1645H63.8101V12.7348H59.9956V14.4047H64.3022V15.975H58.2554ZM68.7085 15.975V7.81293H70.0151L74.3394 12.9047V7.81293H76.0796V15.975H74.7319L70.4487 11.018V15.975H68.7085ZM77.6851 15.975V7.81293H83.7319V9.3891H79.4253V11.1645H83.2397V12.7348H79.4253V14.4047H83.7319V15.975H77.6851ZM84.2593 9.40082V7.81293H91.4487V9.40082H88.7241V15.975H86.9839V9.40082H84.2593ZM92.0991 7.81293H93.9272L95.644 13.309L97.5249 7.81293H98.978L100.859 13.309L102.576 7.81293H104.404L101.726 16.0219H100.033L98.2456 10.8246L96.4702 16.0219H94.7651L92.0991 7.81293ZM105.429 14.0356C105.054 13.3832 104.867 12.6703 104.867 11.8969C104.867 11.1235 105.054 10.4106 105.429 9.75824C105.808 9.1059 106.324 8.59222 106.976 8.21722C107.628 7.83832 108.345 7.64886 109.126 7.64886C109.712 7.64886 110.269 7.76019 110.796 7.98285C111.328 8.20551 111.783 8.50629 112.162 8.88519C112.544 9.2641 112.847 9.71527 113.07 10.2387C113.292 10.7621 113.404 11.3149 113.404 11.8969C113.404 12.4789 113.292 13.0317 113.07 13.5551C112.847 14.0786 112.544 14.5297 112.162 14.9086C111.783 15.2875 111.328 15.5883 110.796 15.811C110.269 16.0336 109.712 16.145 109.126 16.145C108.345 16.145 107.628 15.9575 106.976 15.5825C106.324 15.2036 105.808 14.6879 105.429 14.0356ZM106.941 10.5786C106.726 10.9809 106.619 11.4203 106.619 11.8969C106.619 12.3735 106.726 12.8129 106.941 13.2153C107.156 13.6137 107.457 13.9321 107.843 14.1703C108.23 14.4047 108.658 14.5219 109.126 14.5219C109.599 14.5219 110.029 14.4047 110.416 14.1703C110.802 13.9321 111.103 13.6137 111.318 13.2153C111.533 12.8129 111.64 12.3735 111.64 11.8969C111.64 11.4203 111.533 10.9828 111.318 10.5844C111.103 10.1821 110.802 9.86176 110.416 9.62347C110.029 9.38519 109.599 9.26605 109.126 9.26605C108.658 9.26605 108.23 9.38519 107.843 9.62347C107.457 9.85785 107.156 10.1762 106.941 10.5786ZM114.822 15.975V7.81293H118.302C119.255 7.81293 120.033 8.07074 120.634 8.58636C121.24 9.10199 121.542 9.78168 121.542 10.6254C121.542 11.1723 121.406 11.6586 121.132 12.0844C120.859 12.5102 120.48 12.8422 119.996 13.0805L122.07 15.975H119.996L118.208 13.4438H116.562V15.975H114.822ZM116.562 11.8442H118.244C118.693 11.8442 119.068 11.7328 119.369 11.5102C119.673 11.2836 119.826 10.9887 119.826 10.6254C119.826 10.2543 119.675 9.95746 119.375 9.7348C119.074 9.51215 118.697 9.40082 118.244 9.40082H116.562V11.8442ZM122.978 15.975V7.81293H124.718V11.809L128.269 7.81293H130.337L127.167 11.4047L130.66 15.975H128.498L125.99 12.7231L124.718 14.1645V15.975H122.978Z" fill="black" fill-opacity="0.87"/>
<path d="M20.4081 13.266C21.1281 13.266 21.7041 12.7033 21.7041 12C21.7041 11.2967 21.1281 10.7341 20.4081 10.7341C20.1441 10.7341 19.8801 10.8278 19.6641 10.9685L17.8401 9.93699C17.8401 9.91354 17.8401 9.86665 17.8401 9.84321C17.8401 9.81977 17.8401 9.77288 17.8401 9.74944L19.6641 8.71792C19.8801 8.85858 20.1201 8.95236 20.4081 8.95236C21.1281 8.95236 21.7041 8.38971 21.7041 7.68641C21.7041 6.98311 21.1281 6.42046 20.4081 6.42046C20.1441 6.42046 19.8801 6.51424 19.6641 6.6549L17.8401 5.62338C17.8401 5.59994 17.8401 5.55305 17.8401 5.52961C17.8401 4.8263 17.2641 4.26366 16.5441 4.26366C15.8241 4.26366 15.2481 4.8263 15.2481 5.52961C15.2481 6.23291 15.8241 6.79556 16.5441 6.79556C16.8081 6.79556 17.0721 6.70178 17.2881 6.56112L19.1121 7.59264C19.1121 7.61608 19.1121 7.66297 19.1121 7.68641C19.1121 7.70985 19.1121 7.75674 19.1121 7.78018L17.2881 8.8117C17.0721 8.67104 16.8321 8.57726 16.5441 8.57726C16.2561 8.57726 16.0161 8.67104 15.8001 8.8117L13.9761 7.78018C13.9761 7.75674 13.9761 7.70985 13.9761 7.68641C13.9761 7.17065 13.6641 6.74867 13.2321 6.53768V4.45121C13.6641 4.24022 13.9761 3.81823 13.9761 3.30248C13.9761 2.59917 13.4001 2.03653 12.6801 2.03653C11.9601 2.03653 11.3841 2.59917 11.3841 3.30248C11.3841 3.81823 11.6961 4.24022 12.1281 4.45121V6.51424C11.6961 6.72523 11.3841 7.14721 11.3841 7.66297C11.3841 8.36627 11.9601 8.92891 12.6801 8.92891C12.9441 8.92891 13.2081 8.83514 13.4241 8.69448L15.2481 9.72599C15.2481 9.74944 15.2481 9.79632 15.2481 9.81977C15.2481 9.84321 15.2481 9.8901 15.2481 9.91354L13.4241 10.9451C13.2081 10.8044 12.9681 10.7106 12.6801 10.7106C12.3921 10.7106 12.1521 10.8044 11.9361 10.9451L10.1121 9.91354C10.1121 9.8901 10.1121 9.84321 10.1121 9.81977C10.1121 9.30401 9.8001 8.88203 9.3681 8.67104V6.60801C9.8001 6.39702 10.1121 5.97504 10.1121 5.45928C10.1121 4.75597 9.5361 4.19333 8.8161 4.19333C8.0961 4.19333 7.5441 4.77942 7.5441 5.48272C7.5441 5.99848 7.8561 6.42046 8.2881 6.63145V8.67104C8.2161 8.69448 8.1681 8.74137 8.0961 8.76481L6.2721 7.7333C6.2721 7.70985 6.2721 7.66297 6.2721 7.63952C6.2721 6.93622 5.6961 6.37357 4.9761 6.37357C4.2561 6.37357 3.7041 6.93622 3.7041 7.63952C3.7041 8.15528 4.0161 8.57726 4.4481 8.78825V10.8513C4.0161 11.0623 3.7041 11.4843 3.7041 12C3.7041 12.7033 4.2801 13.266 5.0001 13.266C5.7201 13.266 6.2961 12.7033 6.2961 12C6.2961 11.4843 5.9841 11.0623 5.5521 10.8513V8.78825C5.6241 8.76481 5.6721 8.71792 5.7441 8.69448L7.5681 9.72599C7.5681 9.74944 7.5681 9.79632 7.5681 9.81977C7.5681 10.3355 7.8801 10.7575 8.3121 10.9685V13.0315C7.8801 13.2425 7.5681 13.6645 7.5681 14.1803C7.5681 14.2037 7.5681 14.2506 7.5681 14.274L5.7441 15.3055C5.5281 15.1649 5.2881 15.0711 5.0001 15.0711C4.2801 15.0711 3.7041 15.6338 3.7041 16.3371C3.7041 17.0404 4.2801 17.603 5.0001 17.603C5.7201 17.603 6.2961 17.0404 6.2961 16.3371C6.2961 16.3136 6.2961 16.2667 6.2961 16.2433L8.1201 15.2118C8.3361 15.3524 8.5761 15.4462 8.8641 15.4462C9.5841 15.4462 10.1601 14.8836 10.1601 14.1803C10.1601 13.6645 9.8481 13.2425 9.4161 13.0315V10.9685C9.4881 10.9451 9.5361 10.8982 9.6081 10.8747L11.4321 11.9062C11.4321 11.9297 11.4321 11.9766 11.4321 12C11.4321 12.5158 11.7441 12.9378 12.1761 13.1487V15.2118C11.7441 15.4228 11.4321 15.8447 11.4321 16.3605C11.4321 16.3839 11.4321 16.4308 11.4321 16.4543L9.6081 17.4858C9.3921 17.3451 9.1521 17.2514 8.8641 17.2514C8.1441 17.2514 7.5681 17.814 7.5681 18.5173C7.5681 19.2206 8.1441 19.7833 8.8641 19.7833C9.5841 19.7833 10.1601 19.2206 10.1601 18.5173C10.1601 18.4939 10.1601 18.447 10.1601 18.4235L11.9841 17.392C12.0321 17.4389 12.1041 17.4623 12.1761 17.4858V19.5488C11.7441 19.7598 11.4321 20.1818 11.4321 20.6975C11.4321 21.4009 12.0081 21.9635 12.7281 21.9635C13.4481 21.9635 14.0241 21.4009 14.0241 20.6975C14.0241 20.6741 14.0241 20.6272 14.0241 20.6038L15.8481 19.5723C16.0641 19.7129 16.3041 19.8067 16.5921 19.8067C17.3121 19.8067 17.8881 19.244 17.8881 18.5407C17.8881 17.8374 17.3121 17.2748 16.5921 17.2748C15.8721 17.2748 15.2481 17.814 15.2481 18.5173C15.2481 18.5407 15.2481 18.5876 15.2481 18.6111L13.4241 19.6426C13.3761 19.5957 13.3041 19.5723 13.2321 19.5488V17.4858C13.6641 17.2748 13.9761 16.8528 13.9761 16.3371C13.9761 16.3136 13.9761 16.2667 13.9761 16.2433L15.8001 15.2118C16.0161 15.3524 16.2561 15.4462 16.5441 15.4462C16.8321 15.4462 17.0721 15.3524 17.2881 15.2118L19.1121 16.2433C19.1121 16.2667 19.1121 16.3136 19.1121 16.3371C19.1121 17.0404 19.6881 17.603 20.4081 17.603C21.1281 17.603 21.7041 17.0404 21.7041 16.3371C21.7041 15.6338 21.1281 15.0711 20.4081 15.0711C20.1441 15.0711 19.8801 15.1649 19.6641 15.3055L17.8401 14.274C17.8401 14.2506 17.8401 14.2037 17.8401 14.1803C17.8401 13.477 17.2641 12.9143 16.5441 12.9143C15.8241 12.9143 15.2481 13.477 15.2481 14.1803C15.2481 14.2037 15.2481 14.2506 15.2481 14.274L13.4241 15.3055C13.3761 15.2587 13.3041 15.2352 13.2321 15.2118V13.1253C13.6641 12.9143 13.9761 12.4923 13.9761 11.9766C13.9761 11.9531 13.9761 11.9062 13.9761 11.8828L15.8001 10.8513C16.0161 10.9919 16.2561 11.0857 16.5441 11.0857C16.8321 11.0857 17.0721 10.9919 17.2881 10.8513L19.1121 11.8828C19.1121 11.9062 19.1121 11.9531 19.1121 11.9766C19.1121 12.6799 19.6881 13.266 20.4081 13.266Z" fill="black" fill-opacity="0.87"/>
</svg>
