<svg width="36" height="40" viewBox="0 0 36 40" fill="none" xmlns="http://www.w3.org/2000/svg">
<path d="M33.0775 22.6164C34.4867 22.6164 35.6142 21.4973 35.6142 20.0984C35.6142 18.6995 34.4867 17.5804 33.0775 17.5804C32.5608 17.5804 32.044 17.7669 31.6213 18.0467L28.0512 15.995C28.0512 15.9483 28.0512 15.8551 28.0512 15.8085C28.0512 15.7618 28.0512 15.6686 28.0512 15.6219L31.6213 13.5702C32.044 13.85 32.5138 14.0365 33.0775 14.0365C34.4867 14.0365 35.6142 12.9174 35.6142 11.5185C35.6142 10.1196 34.4867 9.00052 33.0775 9.00052C32.5608 9.00052 32.044 9.18704 31.6213 9.46681L28.0512 7.41511C28.0512 7.36848 28.0512 7.27522 28.0512 7.22859C28.0512 5.8297 26.9238 4.71058 25.5145 4.71058C24.1052 4.71058 22.9778 5.8297 22.9778 7.22859C22.9778 8.62748 24.1052 9.74659 25.5145 9.74659C26.0312 9.74659 26.548 9.56007 26.9707 9.2803L30.5408 11.332C30.5408 11.3786 30.5408 11.4719 30.5408 11.5185C30.5408 11.5652 30.5408 11.6584 30.5408 11.705L26.9707 13.7567C26.548 13.477 26.0782 13.2904 25.5145 13.2904C24.9508 13.2904 24.481 13.477 24.0583 13.7567L20.4882 11.705C20.4882 11.6584 20.4882 11.5652 20.4882 11.5185C20.4882 10.4927 19.8775 9.65333 19.0319 9.23367V5.08362C19.8775 4.66395 20.4882 3.82462 20.4882 2.79877C20.4882 1.39988 19.3608 0.280762 17.9515 0.280762C16.5423 0.280762 15.4149 1.39988 15.4149 2.79877C15.4149 3.82462 16.0255 4.66395 16.8711 5.08362V9.18704C16.0255 9.6067 15.4149 10.446 15.4149 11.4719C15.4149 12.8708 16.5423 13.9899 17.9515 13.9899C18.4682 13.9899 18.985 13.8034 19.4077 13.5236L22.9778 15.5753C22.9778 15.6219 22.9778 15.7152 22.9778 15.7618C22.9778 15.8085 22.9778 15.9017 22.9778 15.9483L19.4077 18.0001C18.985 17.7203 18.5152 17.5338 17.9515 17.5338C17.3878 17.5338 16.9181 17.7203 16.4953 18.0001L12.9252 15.9483C12.9252 15.9017 12.9252 15.8085 12.9252 15.7618C12.9252 14.736 12.3145 13.8966 11.4689 13.477V9.37355C12.3145 8.95389 12.9252 8.11455 12.9252 7.0887C12.9252 5.68981 11.7978 4.57069 10.3885 4.57069C8.97926 4.57069 7.89883 5.73644 7.89883 7.13533C7.89883 8.16118 8.50951 9.00052 9.35506 9.42018V13.477C9.21413 13.5236 9.12018 13.6169 8.97926 13.6635L5.40915 11.6118C5.40915 11.5652 5.40915 11.4719 5.40915 11.4253C5.40915 10.0264 4.28175 8.90726 2.87249 8.90726C1.46324 8.90726 0.382812 10.0264 0.382812 11.4253C0.382812 12.4511 0.993489 13.2905 1.83904 13.7101V17.8135C0.993489 18.2332 0.382812 19.0725 0.382812 20.0984C0.382812 21.4973 1.51022 22.6164 2.91947 22.6164C4.32872 22.6164 5.45613 21.4973 5.45613 20.0984C5.45613 19.0725 4.84545 18.2332 3.9999 17.8135V13.7101C4.14082 13.6635 4.23477 13.5702 4.3757 13.5236L7.94581 15.5753C7.94581 15.6219 7.94581 15.7152 7.94581 15.7618C7.94581 16.7877 8.55648 17.627 9.40204 18.0467V22.1501C8.55648 22.5698 7.94581 23.4091 7.94581 24.435C7.94581 24.4816 7.94581 24.5748 7.94581 24.6215L4.3757 26.6732C3.95292 26.3934 3.48317 26.2069 2.91947 26.2069C1.51022 26.2069 0.382813 27.326 0.382813 28.7249C0.382813 30.1238 1.51022 31.2429 2.91947 31.2429C4.32872 31.2429 5.45613 30.1238 5.45613 28.7249C5.45613 28.6783 5.45613 28.585 5.45613 28.5384L9.02623 26.4867C9.44901 26.7664 9.91876 26.953 10.4825 26.953C11.8917 26.953 13.0191 25.8338 13.0191 24.435C13.0191 23.4091 12.4084 22.5698 11.5629 22.1501V18.0467C11.7038 18.0001 11.7978 17.9068 11.9387 17.8602L15.5088 19.9119C15.5088 19.9585 15.5088 20.0518 15.5088 20.0984C15.5088 21.1242 16.1195 21.9636 16.965 22.3832V26.4867C16.1195 26.9063 15.5088 27.7457 15.5088 28.7715C15.5088 28.8181 15.5088 28.9114 15.5088 28.958L11.9387 31.0097C11.5159 30.73 11.0462 30.5434 10.4825 30.5434C9.07321 30.5434 7.94581 31.6626 7.94581 33.0614C7.94581 34.4603 9.07321 35.5795 10.4825 35.5795C11.8917 35.5795 13.0191 34.4603 13.0191 33.0614C13.0191 33.0148 13.0191 32.9216 13.0191 32.8749L16.5892 30.8232C16.6832 30.9165 16.8241 30.9631 16.965 31.0097V35.1132C16.1195 35.5328 15.5088 36.3722 15.5088 37.398C15.5088 38.7969 16.6362 39.916 18.0455 39.916C19.4547 39.916 20.5821 38.7969 20.5821 37.398C20.5821 37.3514 20.5821 37.2581 20.5821 37.2115L24.1522 35.1598C24.575 35.4396 25.0447 35.6261 25.6085 35.6261C27.0177 35.6261 28.1451 34.507 28.1451 33.1081C28.1451 31.7092 27.0177 30.5901 25.6085 30.5901C24.1992 30.5901 22.9778 31.6626 22.9778 33.0614C22.9778 33.1081 22.9778 33.2013 22.9778 33.248L19.4077 35.2997C19.3138 35.2064 19.1729 35.1598 19.0319 35.1132V31.0097C19.8775 30.5901 20.4882 29.7507 20.4882 28.7249C20.4882 28.6783 20.4882 28.585 20.4882 28.5384L24.0583 26.4867C24.481 26.7664 24.9508 26.953 25.5145 26.953C26.0782 26.953 26.548 26.7664 26.9707 26.4867L30.5408 28.5384C30.5408 28.585 30.5408 28.6783 30.5408 28.7249C30.5408 30.1238 31.6682 31.2429 33.0775 31.2429C34.4867 31.2429 35.6142 30.1238 35.6142 28.7249C35.6142 27.326 34.4867 26.2069 33.0775 26.2069C32.5608 26.2069 32.044 26.3934 31.6213 26.6732L28.0512 24.6215C28.0512 24.5748 28.0512 24.4816 28.0512 24.435C28.0512 23.0361 26.9238 21.9169 25.5145 21.9169C24.1052 21.9169 22.9778 23.0361 22.9778 24.435C22.9778 24.4816 22.9778 24.5748 22.9778 24.6215L19.4077 26.6732C19.3138 26.5799 19.1729 26.5333 19.0319 26.4867V22.3366C19.8775 21.9169 20.4882 21.0776 20.4882 20.0518C20.4882 20.0051 20.4882 19.9119 20.4882 19.8652L24.0583 17.8135C24.481 18.0933 24.9508 18.2798 25.5145 18.2798C26.0782 18.2798 26.548 18.0933 26.9707 17.8135L30.5408 19.8652C30.5408 19.9119 30.5408 20.0051 30.5408 20.0518C30.5408 21.4506 31.6682 22.6164 33.0775 22.6164Z" fill="#262626"/>
</svg>
